<svg width="80" height="80" viewBox="0 0 80 80" fill="none" xmlns="http://www.w3.org/2000/svg">
<g id="Subtract" filter="url(#filter0_bii)">
<path fill-rule="evenodd" clip-rule="evenodd" d="M40 80C62.0914 80 80 62.0914 80 40C80 17.9086 62.0914 0 40 0C17.9086 0 0 17.9086 0 40C0 62.0914 17.9086 80 40 80ZM27.2915 34.6671C23.0576 36.5157 18.7074 38.415 14.7295 40.6062L14.7292 40.6064C12.652 42.1273 15.413 43.203 18.0031 44.212C18.4149 44.3724 18.8223 44.5311 19.2053 44.6897C19.524 44.7876 19.8481 44.8909 20.1765 44.9955C23.0571 45.9134 26.2692 46.9368 29.0658 45.3973C33.6598 42.7583 37.9952 39.7073 42.3273 36.6586C43.7466 35.6598 45.1656 34.6612 46.5932 33.6774C46.6601 33.6346 46.7357 33.5856 46.8183 33.5321C48.0346 32.7436 50.7691 30.9711 49.7575 33.414C47.3651 36.0303 44.8026 38.3463 42.2261 40.6749C40.4898 42.2443 38.7471 43.8194 37.0458 45.4959C35.564 46.6998 34.0255 49.1208 35.6846 50.8068C39.5023 53.4794 43.3797 56.0873 47.2548 58.6936C48.5209 59.5451 49.7866 60.3965 51.05 61.2499C53.1849 62.9543 56.5213 61.5755 56.9906 58.9121C57.1992 57.6882 57.4085 56.4643 57.6178 55.2403C58.7761 48.4681 59.9348 41.6936 60.9584 34.8993C61.0975 33.8342 61.2551 32.7691 61.4128 31.7034C61.7952 29.1192 62.1781 26.5319 62.2976 23.9339C61.9894 21.3415 58.8463 21.9116 57.097 22.4945C48.1062 25.9156 39.2051 29.5904 30.3393 33.33C29.3348 33.775 28.3166 34.2195 27.2915 34.6671Z" fill="#C4C4C4"/>
</g>
<defs>
<filter id="filter0_bii" x="-4" y="-4" width="88" height="88" filterUnits="userSpaceOnUse" color-interpolation-filters="sRGB">
<feFlood flood-opacity="0" result="BackgroundImageFix"/>
<feGaussianBlur in="BackgroundImage" stdDeviation="2"/>
<feComposite in2="SourceAlpha" operator="in" result="effect1_backgroundBlur"/>
<feBlend mode="normal" in="SourceGraphic" in2="effect1_backgroundBlur" result="shape"/>
<feColorMatrix in="SourceAlpha" type="matrix" values="0 0 0 0 0 0 0 0 0 0 0 0 0 0 0 0 0 0 127 0" result="hardAlpha"/>
<feOffset/>
<feGaussianBlur stdDeviation="2"/>
<feComposite in2="hardAlpha" operator="arithmetic" k2="-1" k3="1"/>
<feColorMatrix type="matrix" values="0 0 0 0 1 0 0 0 0 1 0 0 0 0 1 0 0 0 1 0"/>
<feBlend mode="normal" in2="shape" result="effect2_innerShadow"/>
<feColorMatrix in="SourceAlpha" type="matrix" values="0 0 0 0 0 0 0 0 0 0 0 0 0 0 0 0 0 0 127 0" result="hardAlpha"/>
<feOffset dy="4"/>
<feGaussianBlur stdDeviation="4"/>
<feComposite in2="hardAlpha" operator="arithmetic" k2="-1" k3="1"/>
<feColorMatrix type="matrix" values="0 0 0 0 1 0 0 0 0 1 0 0 0 0 1 0 0 0 1 0"/>
<feBlend mode="normal" in2="effect2_innerShadow" result="effect3_innerShadow"/>
</filter>
</defs>
</svg>
